<svg xmlns="http://www.w3.org/2000/svg" viewBox="0 0 128 128"><rect width="128" height="128" rx="24" fill="#0b1220"/><g stroke="#07111e" stroke-width="4" stroke-linejoin="round"><path fill="#ef4444" d="M18 34 64 12 110 34 64 56Z"/><path fill="#16a34a" d="M18 34 64 56 64 112 18 88Z"/><path fill="#2563eb" d="M64 56 110 34 110 88 64 112Z"/><path fill="#f8fafc" d="M40 23 56 15 56 36 40 44Z"/><path fill="#f8fafc" d="M72 17 88 25 72 33Z"/><path fill="#facc15" d="M30 61 46 69 46 88 30 80Z"/><path fill="#facc15" d="M49 72 61 78 61 98 49 92Z"/><path fill="#f8fafc" d="M75 63 91 55 91 75 75 83Z"/><path fill="#f8fafc" d="M75 87 91 79 91 99 75 107Z"/></g></svg>